<svg width="512" height="513" viewBox="0 0 512 513" fill="none" xmlns="http://www.w3.org/2000/svg">
<rect width="512" height="513" fill="#E3E3E3"/>
<path d="M476 134.278C476 161.278 454.112 183.167 427.111 183.167H217.224C208.059 183.167 199.269 186.807 192.788 193.288C186.307 199.769 182.667 208.559 182.667 217.724V305.389C182.667 318.889 193.611 329.833 207.111 329.833H280.444C307.445 329.833 329.333 351.722 329.333 378.722V427.611C329.333 454.612 307.445 476.5 280.444 476.5H84.8889C57.8884 476.5 36 454.612 36 427.611V232.056C36 205.055 57.8883 183.167 84.8889 183.167H158.216C164.701 183.167 170.92 180.591 175.505 176.005C180.091 171.42 182.667 165.201 182.667 158.716V85.3889C182.667 58.3883 204.555 36.5 231.556 36.5H427.111C454.112 36.5 476 58.3883 476 85.3889V134.278Z" fill="#1E1D1D"/>
</svg>
